<?xml version="1.0" encoding="UTF-8"?>
<svg id="Layer_2" data-name="Layer 2" xmlns="http://www.w3.org/2000/svg" viewBox="0 0 59.33 72.25">
  <defs>
    <style>
      .cls-1 {
        fill: #2f3142;
        stroke-width: 0px;
      }
    </style>
  </defs>
  <g id="Layer_1-2" data-name="Layer 1">
    <path class="cls-1" d="M35.67,72.25H0l16.54-24.06h19.55c2.21,0,4,1.79,4,4s-1.79,4-4,4h-15.34l-5.54,8.06h20.46c6.65,0,12.06-5.41,12.06-12.06s-5.41-12.06-12.06-12.06h-12c-11.06,0-20.06-9-20.06-20.06S12.6,0,23.67,0h35.67l-16.53,24.06h-19.55c-2.21,0-4-1.79-4-4s1.79-4,4-4h15.34l5.54-8.06h-20.46c-6.65,0-12.06,5.41-12.06,12.06s5.41,12.06,12.06,12.06h12c11.06,0,20.06,9,20.06,20.06s-9,20.06-20.06,20.06Z"/>
  </g>
</svg>